<svg xmlns="http://www.w3.org/2000/svg" viewBox="0 0 405.36 45.45"><title>Asset 1</title><g id="e9504b99-6970-4f1c-93d6-7f12a019df8a" data-name="Layer 2"><g id="dd4e67dc-b58d-411f-b1c8-1ab56bab27c2" data-name="Logos"><path d="M114.28,13.88a3.48,3.48,0,0,1,2.41.9,2.82,2.82,0,0,1,1,2.17v13a2.89,2.89,0,0,1-1,2.24,3.47,3.47,0,0,1-2.41.9h-13v10h-7V13.88Zm-3.48,6.22h-9.56v6.75h9.56Z" fill="#585afa"></path><path d="M154.52,43.09H137.74a3.64,3.64,0,0,1-2.47-.87,2.79,2.79,0,0,1-1-2.21V13.81h7V36.87H151V13.81h7V40a2.79,2.79,0,0,1-1,2.21A3.64,3.64,0,0,1,154.52,43.09Z" fill="#585afa"></path><path d="M200.65,43.09h-6L181.53,23.3V43.09h-6.82V13.88h9.83l9.23,14v-14h6.89Z" fill="#585afa"></path><path d="M230.8,23.84V20.16h-8.36V36.94h8.36V33.26h6.89V40a2.79,2.79,0,0,1-1,2.21,3.64,3.64,0,0,1-2.47.87H219a3.52,3.52,0,0,1-2.44-.87,2.83,2.83,0,0,1-1-2.21V17a2.93,2.93,0,0,1,1-2.24,3.44,3.44,0,0,1,2.44-.9h15.18a3.56,3.56,0,0,1,2.47.9,2.89,2.89,0,0,1,1,2.24v6.82Z" fill="#585afa"></path><path d="M275.46,13.88V43.09h-6.75V33.26h-9.49v9.83h-6.89V13.88h6.89V27h9.49V13.88Z" fill="#585afa"></path><path d="M297.72,36.87h12.84v6.22H290.77V13.88h7Z" fill="#585afa"></path><path d="M332.89,43.09H326V13.88h6.89Z" fill="#585afa"></path><path d="M366.45,43.09H349.27V36.87H363V31.39H352.74a3.59,3.59,0,0,1-2.44-.9,2.85,2.85,0,0,1-1-2.24V16.82a2.78,2.78,0,0,1,1-2.17,3.6,3.6,0,0,1,2.44-.9h17.11V20H356.22v5.15h10.23a3.47,3.47,0,0,1,2.41.9,2.89,2.89,0,0,1,1,2.24v11.7a2.89,2.89,0,0,1-1,2.24A3.47,3.47,0,0,1,366.45,43.09Z" fill="#585afa"></path><path d="M405.36,20h-6.75V43.09h-6.89V20H385V13.88h20.39Z" fill="#585afa"></path><rect x="19.28" y="16.86" width="11.92" height="21.31" transform="translate(-0.08 0.08) rotate(-0.17)" fill="#585afa"></rect><path d="M49.44,13.74l10.05,0a9.61,9.61,0,0,1,9.81,9.73l0,10.12a9.77,9.77,0,0,1-9.73,9.81L45,43.42H37.89c-4.33,0-6.68-2.37-6.69-5.71l0-26.52" fill="#fc597d"></path><polygon points="42.53 34.99 52.96 34.95 49.17 31.45 48.5 14.67 42.44 14.7 42.53 34.99" fill="#e05177"></polygon><path d="M31.16,13.8l0-6.73c0-2.95,1.67-5,4.44-5l8.56,0a4.46,4.46,0,0,1,4.48,4.44V9.27a4.46,4.46,0,0,1-4.44,4.48l-6.69,0" fill="#fc597d"></path><path d="M64.37,23.17a3.81,3.81,0,0,0-3.47-3.94L61,35c2,0,3.47-.51,3.46-2.72Z" fill="#fff"></path><path d="M36.51,5.48c-1.39,0-1.55,1-1.54,1.74l9.86,0c0-.76,0-1.75-1.42-1.74Z" fill="#fff"></path><line x1="21.67" y1="16.95" x2="10" y2="16.95" fill="#fe6984"></line><line x1="20.67" y1="27.56" y2="27.56" fill="#fe6984"></line><line x1="13.01" y1="38.19" x2="4.34" y2="38.19" fill="#29228a"></line><path d="M71.3,23.42A11.54,11.54,0,0,0,59.48,11.7l-9.34,0a6.42,6.42,0,0,0,.48-2.47V6.44A6.46,6.46,0,0,0,44.13,0L35.58,0c-3.79,0-6.44,2.9-6.44,7l0,6.73h0v1l-11.76,0H9.32v4h7.93l0,6.67H0v4H17.29l0,10.64,12.23,0c1,3.25,4.09,5.29,8.29,5.29h.05l21.72-.09A11.79,11.79,0,0,0,71.34,33.54ZM21.25,18.87l7.92,0,0,6.17V36.16l-7.88,0ZM59.6,41.36l-21.72.09c-1.59,0-4.27-.4-4.64-3.09L33.19,25V11.22h0l0-4.14c0-.91.24-3,2.45-3l8.56,0h0a2.46,2.46,0,0,1,2.46,2.45V9.28a2.46,2.46,0,0,1-2.45,2.47l-6.69,0v4l6.69,0a6.42,6.42,0,0,0,2.34-.45l.05,14V35H58V31H50.58l-.05-15.22,9,0a7.63,7.63,0,0,1,7.81,7.74l0,10.12A7.78,7.78,0,0,1,59.6,41.36Z" fill="#29228a"></path><rect x="4.34" y="36.19" width="8.67" height="4" fill="#29228a"></rect></g></g></svg>